<svg id="filled_outline" height="512" viewBox="0 0 512 512" width="512" xmlns="http://www.w3.org/2000/svg" data-name="filled outline"><rect fill="#ffdc13" height="352" rx="48" width="144" x="184" y="136"/><path d="m216 280h80v120h-80z" fill="#ffdc13"/><path d="m280 136a48 48 0 0 0 48 48 48 48 0 0 0 -48-48z" fill="#ededeb"/><g fill="#e5af17"><path d="m216 336h-32v-112l32 56z"/><path d="m296 336h32v-112l-32 56z"/><path d="m184 336h32v64l-8 48-24-8z"/><path d="m296 336v64l8 48 24-8v-104z"/></g><path d="m184 440 24 8 24 40a48 48 0 0 1 -48-48z" fill="#e0300e"/><path d="m280 488 24-40 24-8a48 48 0 0 1 -48 48z" fill="#e0300e"/><path d="m216 280-32-56a177.276 177.276 0 0 1 144 0l-32 56z" fill="#3098c6"/><path d="m307.626 216.418a111.862 111.862 0 0 1 -91.626 47.582c-3.155 0-6.278-.137-9.368-.393l9.368 16.393h80l32-56a177.266 177.266 0 0 0 -20.374-7.582z" fill="#2686a8"/><path d="m232 136a48 48 0 0 1 -48 48 48 48 0 0 1 48-48z" fill="#ededeb"/><path d="m216 400-8 48a151.786 151.786 0 0 0 96 0l-8-48z" fill="#3098c6"/><path d="m293.977 400a95.872 95.872 0 0 1 -77.977 40c-2.229 0-4.438-.083-6.628-.232l-1.372 8.232a151.786 151.786 0 0 0 96 0l-8-48z" fill="#2686a8"/><path d="m336 184a56.063 56.063 0 0 0 -56-56h-48a56.063 56.063 0 0 0 -56 56v256a56.063 56.063 0 0 0 56 56h48a56.063 56.063 0 0 0 56-56zm-60.53 296h-38.94l-11.569-19.282a161.121 161.121 0 0 0 62.078 0zm-36.051-336h33.162a56.112 56.112 0 0 0 47.419 47.419v20.725a185.659 185.659 0 0 0 -128 0v-20.725a56.112 56.112 0 0 0 47.419-47.419zm48.581 144v104h-64v-104zm-65.223 120h66.446l5.735 34.408a144.936 144.936 0 0 1 -77.916 0zm68.58-136h-70.714l-25.189-44.08a169.638 169.638 0 0 1 121.092 0zm-83.357 10.125v45.875h-16v-73.875zm-16 61.875h16v55.335l-6.353 38.115-9.647-3.216zm118.353 93.45-6.353-38.115v-55.335h16v90.234zm9.647-109.45h-16v-45.875l16-28zm-1.044-153.044a40.117 40.117 0 0 1 -29.912-29.912 40.117 40.117 0 0 1 29.912 29.912zm-96-29.912a40.117 40.117 0 0 1 -29.912 29.912 40.117 40.117 0 0 1 29.912-29.912zm-29.212 306.637 8.919 2.973 13.145 21.909a40.191 40.191 0 0 1 -22.064-24.882zm102.448 24.882 13.145-21.909 8.919-2.973a40.191 40.191 0 0 1 -22.064 24.882z"/><path d="m202.343 106.343 11.314 11.314a59.882 59.882 0 0 1 84.686 0l11.314-11.314a75.968 75.968 0 0 0 -107.314 0z"/><path d="m333.657 82.343a109.948 109.948 0 0 0 -155.314 0l11.314 11.314a93.931 93.931 0 0 1 132.686 0z"/><path d="m154.343 58.343 11.314 11.314a127.908 127.908 0 0 1 180.686 0l11.314-11.314c-56.057-56.053-147.257-56.053-203.314 0z"/><path d="m389.657 250.343-11.314 11.314a105.137 105.137 0 0 1 0 148.686l11.314 11.314a121.138 121.138 0 0 0 0-171.314z"/><path d="m413.662 226.869-.26-.261-11.324 11.3.265.266c54.084 54.083 54.084 142.083 0 196.166l11.314 11.314c60.322-60.319 60.322-158.469.005-218.785z"/><path d="m133.657 261.657-11.314-11.314a121.138 121.138 0 0 0 0 171.314l11.314-11.314a105.137 105.137 0 0 1 0-148.686z"/><path d="m109.662 238.171.26-.26-11.322-11.303-.255.255c-60.322 60.322-60.322 158.472 0 218.794l11.314-11.314c-54.086-54.083-54.086-142.083.003-196.172z"/><path d="m146.343 274.343a87.3 87.3 0 0 0 0 123.314l11.314-11.314a71.275 71.275 0 0 1 0-100.686z"/><path d="m365.657 274.343-11.314 11.314a71.275 71.275 0 0 1 0 100.686l11.314 11.314a87.3 87.3 0 0 0 0-123.314z"/></svg>